<?xml version="1.0" encoding="iso-8859-1"?>
<!-- Generator: Adobe Illustrator 19.0.0, SVG Export Plug-In . SVG Version: 6.00 Build 0)  -->
<svg version="1.1" id="Layer_1" xmlns="http://www.w3.org/2000/svg" xmlns:xlink="http://www.w3.org/1999/xlink" x="0px" y="0px"
	 viewBox="0 0 960 560" style="enable-background:new 0 0 960 560;" xml:space="preserve">
<path d="M259.401,535.444c-7.325-12.624-14.469-24.936-21.614-37.248C182.304,402.582,126.827,306.964,71.325,211.36
	c-4.666-8.037-9.772-15.831-14.122-24.031c-1.831-3.452-1.759-7.872-3.367-11.49c-3.982-8.962-1.838-15.951,4.118-23.64
	c12.588-16.248,23.813-33.546,36.129-50.016c4.141-5.537,10.001-9.764,14.892-14.769c20.206-20.679,44.713-35.978,67.058-53.977
	c7.511-6.05,15.275-8.308,24.745-8.676c40.072-1.556,80.117-3.811,120.178-5.689c3.137-0.147,6.438,0.216,9.459,1.066
	c46.885,13.195,93.741,26.494,140.58,39.853c2.133,0.608,4.289,1.699,6.013,3.088c23.359,18.816,46.483,37.931,70.073,56.452
	c5.215,4.094,9.018,8.775,12.271,14.275c3.334,5.636,6.602,11.335,10.32,16.716c5.372,7.776,8.674,16.277,11.03,25.393
	c5.088,19.69,11.044,39.161,15.857,58.914c2.351,9.649,2.939,19.728,4.323,29.613c0.032,0.227-0.01,0.475,0.062,0.685
	c2.928,8.505-0.492,14.678-6.608,20.525c-5.711,5.461-11.009,11.48-15.709,17.83c-3.307,4.468-7.556,7.44-11.859,10.542
	c-102.074,73.596-204.156,147.182-306.24,220.765C260.169,535.048,259.758,535.239,259.401,535.444z M153.201,77.687
	c1.299,1.08,2.251,1.897,3.23,2.681c23.776,19.023,47.525,38.079,71.379,57.004c2.262,1.794,5.038,3.259,7.811,4.043
	c47.412,13.399,94.856,26.683,142.314,39.917c2.388,0.666,4.977,1.002,7.451,0.91c41.793-1.553,83.583-3.173,125.368-4.924
	c1.517-0.064,3.421-1.266,4.386-2.521c11.554-15.03,22.967-30.169,34.406-45.288c0.664-0.878,1.235-1.826,1.898-2.814
	c-0.914-0.827-1.559-1.468-2.262-2.038c-24.635-19.97-49.262-39.95-73.95-59.856c-1.464-1.18-3.335-2.044-5.157-2.563
	C423.128,48.87,376.167,35.555,329.19,22.293c-2.057-0.581-4.298-0.875-6.428-0.775c-43.956,2.061-87.91,4.172-131.856,6.423
	c-1.62,0.083-3.687,1.298-4.657,2.631c-6.488,8.918-12.738,18.009-19.057,27.05C162.591,64.205,158.005,70.797,153.201,77.687z
	 M290.801,213.944c25.06,31.09,49.864,61.861,74.842,92.848c27.144-23.779,53.869-47.19,80.735-70.724
	c-0.906-0.799-1.314-1.196-1.76-1.546c-20.345-15.948-40.715-31.863-61.002-47.883c-1.879-1.484-3.436-1.171-5.376-0.555
	c-27.914,8.864-55.843,17.681-83.765,26.518C293.415,212.939,292.385,213.363,290.801,213.944z M167.531,250.193
	c39.94-12.637,79.238-25.071,118.868-37.61c-1.028-1.379-1.613-2.221-2.255-3.017c-17.232-21.371-34.503-42.711-51.655-64.147
	c-1.684-2.104-3.306-2.631-5.865-2.224c-20.292,3.231-40.605,6.336-60.909,9.493c-5.178,0.805-10.349,1.658-15.804,2.533
	C155.802,186.976,161.616,218.311,167.531,250.193z M359.062,335.565c-1.273,1.128-2.052,1.736-2.736,2.435
	c-31.014,31.706-62.037,63.403-92.96,95.198c-1.269,1.305-2.23,3.541-2.238,5.349c-0.137,29.3-0.1,58.601-0.087,87.901
	c0,0.967,0.157,1.934,0.28,3.353c0.918-0.746,1.479-1.107,1.925-1.578c25.74-27.211,51.479-54.424,77.167-81.685
	c0.88-0.934,1.583-2.304,1.786-3.565c5.577-34.585,11.079-69.183,16.581-103.78C358.931,338.236,358.935,337.255,359.062,335.565z
	 M450.345,235.891c30.019,23.523,59.62,46.719,89.56,70.179c0.348-1.53,0.65-2.494,0.781-3.48
	c4.512-34.152,8.984-68.309,13.558-102.453c0.321-2.394-0.34-3.46-2.546-4.369c-11.57-4.771-23.104-9.635-34.569-14.654
	c-2.297-1.006-3.689-0.58-5.448,0.977c-12.559,11.111-25.206,22.122-37.82,33.172C466.179,221.99,458.507,228.73,450.345,235.891z
	 M170.652,286.077c-0.262,0.093-0.523,0.186-0.785,0.278c0.141,1.006,0.235,2.021,0.429,3.016
	c6.768,34.709,13.52,69.422,20.359,104.117c0.771,3.912,1.385,8.068,3.185,11.532c20.651,39.752,41.517,79.393,62.332,119.061
	c0.487,0.928,1.041,1.821,1.564,2.73c0.29-0.086,0.58-0.171,0.87-0.257c0-1.215,0-2.429,0-3.644c0-27.918,0.047-55.835-0.084-83.752
	c-0.011-2.375-0.725-5.028-1.925-7.075c-27.943-47.665-55.999-95.265-84.036-142.875
	C171.941,288.156,171.289,287.121,170.652,286.077z M261.271,309.719c0,40.695,0,80.819,0,121.98
	c32.922-33.672,65.207-66.692,97.8-100.028c-1.559-0.727-2.56-1.238-3.595-1.67c-13.355-5.58-26.694-11.2-40.095-16.668
	c-2.174-0.887-4.609-1.422-6.955-1.548c-10.782-0.577-21.576-0.946-32.365-1.401C271.253,310.182,266.446,309.953,261.271,309.719z
	 M168.544,277.518c30.025,51.001,59.562,101.174,89.099,151.348c0.837-1.021,0.955-1.776,0.955-2.531
	c0.009-38.14-0.012-76.28,0.056-114.419c0.004-2.189-0.859-3.259-2.654-4.254c-11.25-6.24-22.573-12.365-33.607-18.97
	c-7.019-4.202-14.176-7.056-22.464-7.631C189.766,280.355,179.661,278.813,168.544,277.518z M60.329,182.821
	c1.659-0.506,2.731-0.799,3.781-1.158c26.524-9.055,53.029-18.169,79.593-27.105c2.934-0.987,3.806-2.455,3.902-5.391
	c0.737-22.507,1.604-45.011,2.511-67.512c0.084-2.084-0.515-3.096-2.561-3.7c-5.286-1.561-10.535-3.263-15.738-5.082
	c-2.026-0.708-3.387-0.28-4.9,1.163c-9.313,8.879-18.739,17.641-28.041,26.532c-1.369,1.309-2.565,2.968-3.355,4.689
	c-11.312,24.638-22.542,49.314-33.782,73.985C61.288,180.233,60.937,181.268,60.329,182.821z M445.612,335.31
	c-1.73-0.606-2.772-1.009-3.837-1.338c-9.327-2.877-18.637-5.811-28.005-8.547c-1.903-0.556-4.087-0.726-6.044-0.431
	c-13.74,2.072-27.436,4.436-41.189,6.412c-3.407,0.49-4.423,1.972-4.918,5.159c-4.455,28.707-9.085,57.386-13.653,86.076
	c-0.955,5.997-1.868,12-2.8,18.001c0.22,0.082,0.44,0.163,0.66,0.245C378.931,405.86,412.036,370.834,445.612,335.31z
	 M289.298,215.995c-0.527,1.074-0.773,1.454-0.91,1.871c-6.7,20.267-13.347,40.552-20.14,60.788c-0.815,2.429,0.32,3.25,2.003,4.297
	c13.36,8.303,26.667,16.691,40.062,24.937c1.36,0.837,3.205,1.314,4.805,1.268c14.69-0.425,29.376-0.997,44.062-1.546
	c0.981-0.037,1.957-0.234,3.606-0.44C338.134,276.585,313.884,246.498,289.298,215.995z M352.788,437.292
	c0.129,0.158,0.258,0.315,0.386,0.473c58.791-36.182,117.581-72.363,176.372-108.545c-6.776-2.03-13.294-3.299-19.855-4.281
	c-2.335-0.35-4.842-0.362-7.153,0.082c-16.92,3.253-33.823,6.599-50.691,10.105c-1.965,0.409-4.083,1.603-5.468,3.062
	c-30.458,32.072-60.822,64.232-91.199,96.38C354.351,435.446,353.584,436.383,352.788,437.292z M286.477,215.14
	c-39.246,12.417-77.718,24.59-116.894,36.985c1.717,1.174,2.718,1.896,3.756,2.562c11.988,7.7,23.928,15.476,36.022,23.007
	c2.102,1.309,4.842,2.165,7.31,2.22c14.933,0.332,29.875,0.29,44.81,0.577c2.818,0.054,4.008-0.838,4.864-3.48
	c6.266-19.337,12.692-38.623,19.056-57.928C285.746,218.033,285.986,216.949,286.477,215.14z M235.459,144.014
	c-0.144,0.209-0.288,0.418-0.432,0.627c0.734,0.954,1.45,1.924,2.205,2.861c16.514,20.479,33.068,40.925,49.495,61.473
	c1.736,2.172,3.195,2.547,5.801,1.713c26.688-8.544,53.422-16.947,80.14-25.397c1.161-0.367,2.3-0.805,3.45-1.21
	c0.017-0.231,0.035-0.462,0.052-0.694C329.266,170.263,282.363,157.138,235.459,144.014z M368.01,307.98
	c14.359,4.653,27.883,9.078,41.452,13.363c1.324,0.418,2.972,0.195,4.385-0.114c12.678-2.77,25.315-5.739,38.02-8.373
	c3.017-0.625,3.538-1.8,3.212-4.631c-1.931-16.779-3.665-33.58-5.485-50.371c-0.673-6.213-1.399-12.42-2.189-19.403
	C420.718,261.822,394.662,284.64,368.01,307.98z M509.859,344.383c-0.884,0.494-1.787,0.957-2.648,1.487
	c-53.535,32.942-107.07,65.885-160.586,98.858c-1.45,0.893-2.858,1.958-4.025,3.19c-22.608,23.857-45.179,47.75-67.748,71.645
	c-0.613,0.649-1.119,1.4-1.675,2.103C353.883,464.764,434.274,407.708,509.859,344.383z M385.481,184.784
	c1.562,1.359,2.36,2.118,3.222,2.795c17.887,14.027,35.764,28.068,53.699,42.034c2.066,1.609,4.467,2.787,6.654,4.129
	c20.406-17.88,40.444-35.439,60.483-52.997c-0.142-0.269-0.285-0.538-0.427-0.807C468.215,181.541,427.317,183.144,385.481,184.784z
	 M109.72,244.92c26.024,49.608,51.638,98.436,77.253,147.265c0.647-0.858,0.653-1.427,0.546-1.973
	c-7.198-36.853-14.386-73.709-21.675-110.544c-0.309-1.56-1.274-3.218-2.411-4.351c-8.873-8.837-17.853-17.568-26.834-26.295
	c-0.795-0.772-1.787-1.75-2.771-1.856C126.08,246.335,118.311,245.694,109.72,244.92z M227.751,140.57
	c-25.42-20.325-49.978-39.962-75.107-60.055c-0.931,23.501-1.831,45.994-2.701,68.489c-0.106,2.746,1.401,3.439,3.934,3.042
	c14.066-2.204,28.145-4.322,42.216-6.5C206.276,143.971,216.452,142.348,227.751,140.57z M557.191,203.489
	c-0.324,0.032-0.648,0.064-0.971,0.096c-4.54,34.405-9.08,68.811-13.679,103.665c9.612,0,18.658,0.065,27.7-0.104
	c0.868-0.016,1.995-1.337,2.516-2.312c3.683-6.887,7.142-13.895,10.891-20.745c1.234-2.254,1.208-4.143,0.35-6.482
	c-5.535-15.092-10.928-30.237-16.383-45.358C564.155,222.657,560.667,213.075,557.191,203.489z M148.059,158.726
	c-0.737,0.828-1.088,1.096-1.275,1.45c-9.903,18.804-19.823,37.599-29.589,56.474c-0.493,0.954-0.048,2.893,0.653,3.881
	c3.787,5.34,8.179,10.285,11.62,15.828c3.912,6.302,8.797,10.263,16.448,10.365c1.808,0.024,3.606,0.656,5.413,0.987
	c4.345,0.795,8.692,1.578,13.705,2.486C159.319,219.406,153.741,189.347,148.059,158.726z M538.695,308.246
	c-28.026-21.957-55.501-43.481-82.976-65.006c-0.201,0.202-0.402,0.404-0.603,0.606c5.366,8.122,10.731,16.245,16.098,24.367
	c11.209,16.963,22.413,33.929,33.637,50.882c0.832,1.257,1.316,2.987,3.63,1.985C518.269,316.841,528.111,312.728,538.695,308.246z
	 M503.332,321.28c-17.652-26.712-34.849-52.734-52.585-79.574c-0.128,1.58-0.234,2.021-0.188,2.446
	c2.343,21.796,4.73,43.588,7.006,65.392c0.24,2.297,1.538,2.689,3.354,3.065c12.806,2.653,25.597,5.377,38.396,8.063
	C500.371,320.893,501.45,320.999,503.332,321.28z M590.204,223.904c0.238-0.128,0.476-0.257,0.714-0.385
	c-0.246-1.09-0.451-2.192-0.744-3.269c-3.262-11.969-6.975-23.836-9.697-35.926c-3.251-14.438-8.754-27.705-17.369-39.731
	c-2.202-3.074-3.982-6.448-5.989-9.664c-0.444-0.711-1.028-1.333-1.871-2.408c-0.183,0.976-0.342,1.394-0.328,1.805
	c0.699,19.746,1.378,39.493,2.209,59.233c0.053,1.268,1.032,2.778,2.03,3.678c4.347,3.924,8.862,7.661,13.312,11.471
	C578.384,213.772,584.293,218.839,590.204,223.904z M587.233,279.458c3.908-1.365,7.5-2.499,10.966-3.938
	c0.665-0.276,1.256-1.806,1.159-2.677c-1.231-11.067-2.329-22.161-4.061-33.153c-0.651-4.13-0.876-8.788-4.555-11.933
	c-9.6-8.21-19.187-16.434-28.795-24.635c-0.612-0.522-1.359-0.887-2.92-1.886C568.596,227.775,577.812,253.332,587.233,279.458z
	 M515.97,177.887c1.326,0.624,2.32,1.133,3.345,1.567c10.245,4.347,20.493,8.688,30.745,13.019c4.095,1.73,4.566,1.409,4.406-3.025
	c-0.662-18.353-1.331-36.706-2.012-55.058c-0.037-0.986-0.209-1.967-0.441-4.058C539.668,146.62,527.934,162.103,515.97,177.887z
	 M169.055,365.193c0.204-0.165,0.408-0.33,0.613-0.495c-0.882-1.738-1.744-3.487-2.649-5.213
	c-15.303-29.205-30.807-58.307-45.851-87.645c-10.604-20.679-22.338-40.669-34.874-60.208c-0.681-1.061-2.194-2.412-3.171-2.303
	c-2.791,0.312-5.506,1.309-8.729,2.163C106.102,262.978,137.579,314.085,169.055,365.193z M141.395,158.787
	c-0.198-0.254-0.396-0.509-0.594-0.763c-26.614,9.111-53.229,18.221-80.413,27.527c8.704,7.047,16.714,13.531,24.878,20.141
	C104.091,189.959,122.743,174.373,141.395,158.787z M143.209,161.61c-0.237-0.181-0.475-0.362-0.712-0.543
	c-18.142,15.164-36.284,30.329-54.911,45.899c9.287,3.508,17.82,6.731,26.56,10.032C123.954,198.306,133.582,179.958,143.209,161.61
	z M320.031,311.555c-0.043,0.274-0.087,0.549-0.13,0.823c1.129,0.516,2.243,1.064,3.388,1.543
	c11.114,4.644,22.166,9.448,33.394,13.797c2.999,1.162,6.632,1.62,9.816,1.2c11.484-1.512,22.902-3.533,34.342-5.376
	c0.956-0.154,1.894-0.419,3.521-0.787c-1.136-0.591-1.595-0.916-2.106-1.082c-11.449-3.728-22.901-7.446-34.362-11.136
	c-0.737-0.237-1.555-0.339-2.331-0.323c-9.372,0.19-18.745,0.378-28.115,0.644C331.64,311.022,325.836,311.318,320.031,311.555z
	 M205.772,279.405c0.071-0.232,0.142-0.464,0.214-0.696c-0.912-0.638-1.803-1.309-2.739-1.91
	c-8.881-5.71-17.992-11.097-26.588-17.208c-7.13-5.07-14.779-8.051-23.381-9.078c-4.248-0.507-8.44-1.475-13.514-2.389
	c0.904,1.189,1.181,1.664,1.559,2.035c7.95,7.794,15.891,15.597,23.903,23.327c0.761,0.734,1.942,1.298,2.991,1.428
	C180.729,276.467,193.252,277.923,205.772,279.405z M258.987,306.549c1.883-8.126,3.627-15.649,5.497-23.718
	c-16.015,0-31.389,0-47.675,0C231.163,290.903,244.755,298.546,258.987,306.549z M261.343,307.257
	c15.348,0.641,30.056,1.254,44.765,1.868c0.075-0.254,0.15-0.508,0.226-0.762c-13.035-8.142-26.069-16.285-39.513-24.682
	C264.916,291.88,263.204,299.247,261.343,307.257z M131.419,70.195c6.528,2.114,12.056,4.038,17.685,5.598
	c0.954,0.265,2.791-0.712,3.461-1.655c8.922-12.549,17.713-25.192,26.517-37.826c0.378-0.543,0.562-1.222,0.837-1.837
	c-0.153-0.106-0.305-0.211-0.458-0.317C163.69,45.987,147.921,57.817,131.419,70.195z M87.242,117.335
	c-0.193-0.107-0.387-0.214-0.58-0.32c-0.258,0.217-0.576,0.392-0.766,0.658c-10.545,14.782-21.083,29.57-31.603,44.37
	c-0.386,0.543-0.948,1.302-0.824,1.815c1.324,5.474,2.771,10.918,4.183,16.37c0.312-0.014,0.624-0.028,0.936-0.041
	C68.14,159.236,77.691,138.286,87.242,117.335z M450.011,332.908c16.236-3.236,31.495-6.278,47.194-9.407
	c-0.717-0.636-0.863-0.876-1.051-0.917c-12.23-2.617-24.458-5.244-36.71-7.753c-0.741-0.152-2.179,0.433-2.445,1.044
	C454.674,321.224,452.542,326.656,450.011,332.908z M137.507,320.386c27.769,47.871,55.538,95.742,83.308,143.614
	C197.809,413.36,167.2,367.139,137.507,320.386z M417.317,323.007c0.316,0.535,0.39,0.847,0.546,0.896
	c9.203,2.889,18.404,5.784,27.639,8.567c0.633,0.191,2.002-0.269,2.221-0.775c2.313-5.336,4.462-10.743,7.009-16.994
	C441.699,317.594,429.574,320.286,417.317,323.007z M89.331,210.269c-0.153,0.255-0.306,0.51-0.459,0.765
	c5.913,9.515,11.827,19.03,18.288,29.426c2.2-7.729,4.067-14.285,6.024-21.16C105.04,216.217,97.186,213.243,89.331,210.269z
	 M472.271,378.148c0.183,0.181,0.367,0.362,0.55,0.542c27.254-19.638,54.508-39.275,81.762-58.913
	c-0.184-0.312-0.368-0.625-0.553-0.937c-7.456,4.155-15.494,7.536-22.257,12.614c-18.728,14.061-36.926,28.829-55.33,43.322
	C475.039,375.883,473.661,377.024,472.271,378.148z M115.211,221.241c-2.161,7.612-4.021,14.167-6.01,21.171
	c7.787,0.674,15.1,1.306,23.396,2.024C126.573,236.399,121.18,229.204,115.211,221.241z M515.906,322.458
	c-0.004,0.337-0.008,0.674-0.011,1.01c5.035,0.899,10.051,1.933,15.115,2.619c1.69,0.229,3.695-0.024,5.222-0.755
	c7.246-3.467,14.38-7.168,21.544-10.805c0.8-0.406,1.535-0.939,2.301-1.413c-0.09-0.163-0.18-0.327-0.27-0.49
	C545.173,315.902,530.539,319.18,515.906,322.458z M64.069,191.959c-0.239,0.185-0.478,0.371-0.718,0.556
	c3.076,5.282,6.127,10.579,9.276,15.817c0.239,0.397,1.232,0.629,1.777,0.505c2.4-0.547,4.763-1.253,7.918-2.113
	C75.845,201.485,69.957,196.722,64.069,191.959z M524.006,318.129c11.412-2.568,22.824-5.135,34.49-7.76
	C545.631,307.848,534.41,311.459,524.006,318.129z M595.815,280.056c-0.196-0.304-0.392-0.608-0.587-0.911
	c-2.8,1.35-6.534,1.996-8.198,4.202c-3.103,4.115-5.003,9.137-7.403,13.782c0.224,0.155,0.449,0.31,0.673,0.464
	C585.471,291.747,590.643,285.901,595.815,280.056z"/>
</svg>
