<svg width="757" height="601" viewBox="0 0 757 601" fill="none" xmlns="http://www.w3.org/2000/svg">
<path d="M187 593.342L150 520.842M187 593.342L269 598.842M187 593.342L197.988 576.842M150 520.842L45.5 264.842M150 520.842L140 375.342M45.5 264.842L76 297.342M45.5 264.842L66 236.342M45.5 264.842L28.4579 224.342M3 163.842L13.9406 189.842M3 163.842L21 136.342M3 163.842L5.48387 125.342M7 101.842L15.5 81.8419L34 53.3419M7 101.842L5.48387 125.342M7 101.842L19 87.3419M34 53.3419L49 38.8419L97.5 13.3419M34 53.3419L19 87.3419M34 53.3419H145M97.5 13.3419C130.667 3.67527 214.6 -8.75806 285 18.8419M97.5 13.3419L98.8337 14.465M285 18.8419L286.05 19.2547M285 18.8419L268.042 44.3419M413.5 69.3419L503 107.342L575.5 172.842M413.5 69.3419L286.05 19.2547M413.5 69.3419L267.676 44.8925M413.5 69.3419L575.5 172.842M575.5 172.842L677 273.342M575.5 172.842L659.5 302.342M677 273.342L713.5 333.342L754 435.342M677 273.342L754 435.342M677 273.342L659.5 302.342M754 435.342C754.667 454.842 753.8 497.442 745 511.842M754 435.342L700.5 418.842M745 511.842L720.5 551.342M745 511.842L720.5 540.342M745 511.842L700.5 418.842M720.5 551.342L691 571.842M720.5 551.342V540.342M691 571.842L659.5 586.842M691 571.842L700.5 555.342M659.5 586.842L675.5 561.842M659.5 586.842L630.5 587.756M548.5 590.342L269 598.842M548.5 590.342L568 558.842M548.5 590.342L509.5 576.842M548.5 590.342L593 588.939M269 598.842L411.5 551.342M345.5 355.342L156.5 348.842M345.5 355.342L289.226 439.842M345.5 355.342L427.5 525.342M345.5 355.342L300.5 249.842M345.5 355.342L462.5 352.342M156.5 348.842L140 375.342M156.5 348.842L197.988 384.842M156.5 348.842L119.5 315.842M156.5 348.842L165 198.342M140 375.342L197.988 576.842M140 375.342L185 403.342M140 375.342L106.5 333.342M197.988 576.842L411.5 551.342M197.988 576.842L271.744 466.092M411.5 551.342L427.5 525.342M411.5 551.342L462.5 564.842M411.5 551.342L370.5 520.842M427.5 525.342L562.5 453.842M427.5 525.342L474 544.842M427.5 525.342L380 504.842M562.5 453.842L568 558.842M562.5 453.842L462.5 352.342M562.5 453.842L611 375.342M562.5 453.842L675.5 561.842M568 558.842H521.5M568 558.842L602.5 569.842M521.5 558.842L474 544.842M521.5 558.842L509.5 576.842M474 544.842L462.5 564.842M462.5 564.842L509.5 576.842M370.5 520.842L322 493.342M370.5 520.842L380 504.842M322 493.342L271.744 466.092M322 493.342L336 476.842M271.744 466.092L289.226 439.842M271.744 466.092L229 432.842M289.226 439.842L336 476.842M289.226 439.842L240 415.342M336 476.842L380 504.842M462.5 352.342L611 375.342M462.5 352.342L300.5 249.842M611 375.342L700.5 418.842M611 375.342L659.5 302.342M675.5 561.842L640.5 569.842M675.5 561.842L700.5 555.342M675.5 561.842L700.5 418.842M640.5 569.842H602.5M640.5 569.842L630.5 587.756M602.5 569.842L593 588.939M593 588.939L630.5 587.756M700.5 555.342L720.5 540.342M229 432.842L185 403.342M229 432.842L240 415.342M185 403.342L197.988 384.842M197.988 384.842L240 415.342M106.5 333.342L76 297.342M106.5 333.342L119.5 315.842M76 297.342L89 279.342M66 236.342L89 279.342M66 236.342L165 198.342M66 236.342L43 207.342M89 279.342L119.5 315.842M165 198.342L300.5 249.842M165 198.342L21 136.342M165 198.342L217.5 120.342M300.5 249.842L217.5 120.342M21 136.342L27 175.842M21 136.342L145 53.3419M21 136.342L15.5 115.342M27 175.842L43 207.342M27 175.842L13.9406 189.842M43 207.342L28.4579 224.342M28.4579 224.342L13.9406 189.842M700.5 418.842L659.5 302.342M217.5 120.342L145 53.3419M217.5 120.342L267.676 44.8925M145 53.3419L98.8337 14.465M145 53.3419L268.042 44.3419M15.5 115.342L5.48387 125.342M15.5 115.342L19 87.3419M98.8337 14.465L286.05 19.2547M268.042 44.3419L267.676 44.8925" stroke="#00A5C8" stroke-width="4"/>
<path d="M187.5 593.342L184 473.342M187.5 593.342L144.5 479.342M187.5 593.342L297.5 547.842M187.5 593.342L660 586.342M187.5 593.342L304 586.842M184 473.342L329 74.3419M184 473.342L82.0995 39.7653M184 473.342L198.5 27.8419M329 74.3419L244 507.342M329 74.3419L383 87.8419M329 74.3419L346.5 49.8419M329 74.3419L286.5 48.3419L302 25.3419L346.5 49.8419M244 507.342L600.5 250.342M244 507.342L502 107.342L346.5 49.8419M600.5 250.342L566.5 207.842M600.5 250.342L617.5 227.342M600.5 250.342L638.5 282.842M600.5 250.342L297.5 547.842M566.5 207.842L526 172.842M566.5 207.842L577 192.342M526 172.842L478.5 141.342L434.5 112.342M526 172.842L537 154.842M434.5 112.342L383 87.8419M434.5 112.342L443 94.8419M383 87.8419L393 72.3419M346.5 49.8419L393 72.3419M346.5 49.8419L280.5 26.3419L212.5 2.84192L198.5 27.8419M393 72.3419L443 94.8419M443 94.8419L493.836 120L537 154.842M537 154.842L577 192.342M577 192.342L617.5 227.342M617.5 227.342L676.5 273.842M617.5 227.342L650.47 263.592M694.5 360.342L708 340.342L713 332.342L683.44 299.842M694.5 360.342L670 319.842M694.5 360.342L717 390.842M694.5 360.342L297.5 547.842M670 319.842L683.44 299.842M670 319.842L659.5 302.342L638.5 282.842M683.44 299.842L650.47 263.592M638.5 282.842L650.47 263.592M82 39.3419L97.5 13.3419M82 39.3419L144.5 479.342M82 39.3419L58.5 43.8419M82 39.3419L82.0995 39.7653M144.5 479.342L18 97.3419L19 87.3419L31 63.3419L58.5 43.8419M144.5 479.342L46 264.842M58.5 43.8419L66 30.3419M82.0995 39.7653L114 27.8419M114 27.8419L132 5.84192M114 27.8419L158.5 20.8419M158.5 20.8419L170 2.34192M158.5 20.8419L198.5 27.8419M198.5 27.8419L243.5 33.8419M243.5 33.8419L257.5 18.3419M243.5 33.8419L267.5 44.3419M297.5 547.842L735.5 464.342M735.5 464.342L754 435.842M735.5 464.342L731.5 428.842M735.5 464.342L742.5 487.842M735.5 464.342L304 586.842M731.5 428.842L742.5 410.342M731.5 428.842L717 390.842M717 390.842L727 376.842M742.5 487.842L753 473.842M742.5 487.842L745 511.342M742.5 487.842L741.5 506.342L720.5 540.342L568 558.842L304 586.842" stroke="#00A5C8" stroke-opacity="0.22" stroke-width="2"/>
</svg>
