<svg width="539" height="283" viewBox="0 0 539 283" fill="none" xmlns="http://www.w3.org/2000/svg">
<path fill-rule="evenodd" clip-rule="evenodd" d="M135.828 213.355H332.024C333.134 213.355 334.216 213.235 335.258 213.007C336.3 213.235 337.382 213.355 338.492 213.355H450.604C458.939 213.355 465.696 206.588 465.696 198.239C465.696 189.891 458.939 183.124 450.604 183.124H437.668C429.333 183.124 422.576 176.356 422.576 168.008C422.576 159.66 429.333 152.893 437.668 152.893H478.632C486.967 152.893 493.724 146.125 493.724 137.777C493.724 129.429 486.967 122.662 478.632 122.662H431.2C439.535 122.662 446.292 115.894 446.292 107.546C446.292 99.198 439.535 92.4306 431.2 92.4306H293.216C301.551 92.4306 308.308 85.6631 308.308 77.315C308.308 68.9669 301.551 62.1995 293.216 62.1995H170.324C161.989 62.1995 155.232 68.9669 155.232 77.315C155.232 85.6631 161.989 92.4306 170.324 92.4306H84.0841C75.749 92.4306 68.9921 99.198 68.9921 107.546C68.9921 115.894 75.749 122.662 84.0841 122.662H137.984C146.319 122.662 153.076 129.429 153.076 137.777C153.076 146.125 146.319 152.893 137.984 152.893H51.7441C43.409 152.893 36.6521 159.66 36.6521 168.008C36.6521 176.356 43.409 183.124 51.7441 183.124H135.828C127.493 183.124 120.736 189.891 120.736 198.239C120.736 206.588 127.493 213.355 135.828 213.355ZM487.256 213.355C495.591 213.355 502.348 206.588 502.348 198.24C502.348 189.892 495.591 183.124 487.256 183.124C478.921 183.124 472.164 189.892 472.164 198.24C472.164 206.588 478.921 213.355 487.256 213.355Z" fill="#5CA1C7" fill-opacity="0.1"/>
<path d="M360.052 243.586H408.406M137.984 243.586H184.239H137.984ZM110.232 243.586H125.048H110.232ZM418.54 243.586H424.732H418.54Z" stroke="#5CA1C7" stroke-width="4.75" stroke-linecap="round" stroke-linejoin="round"/>
<path d="M211.288 17.5065L235.219 44.3974M323.615 17.5065L299.684 44.3974L323.615 17.5065ZM267.344 8.21533V44.3974V8.21533Z" stroke="#5CA1C7" stroke-width="4.75" stroke-linecap="round" stroke-linejoin="round"/>
<path fill-rule="evenodd" clip-rule="evenodd" d="M200.072 77.3149H335.051L322.964 95.4748L339.081 107.581H196.042L214.174 95.4748L200.072 77.3149Z" fill="#5CA1C7" fill-opacity="0.05"/>
<rect x="191.884" y="103.228" width="153.076" height="161.952" rx="3.8" fill="white"/>
<path fill-rule="evenodd" clip-rule="evenodd" d="M201.77 191.775V117.577C201.77 114.52 204.271 112.042 207.357 112.042L338.823 250.419C338.823 254.495 335.565 257.799 331.546 257.799H209.046C205.028 257.799 201.77 254.495 201.77 250.419V222.845V215.363V191.775ZM201.77 207.794V199.484Z" fill="#5CA1C7" fill-opacity="0.05"/>
<path d="M194.04 192.761V111.617C194.04 108.274 196.779 105.564 200.158 105.564H340.133C342.333 105.564 344.117 107.371 344.117 109.599V256.897C344.117 261.354 340.55 264.968 336.149 264.968H202.008C197.607 264.968 194.04 261.354 194.04 256.897V226.74V218.559M194.04 210.281V201.193" stroke="#5CA1C7" stroke-width="4.75" stroke-linecap="round"/>
<path d="M198.057 105.564V81.3508C198.057 79.122 199.676 77.3152 201.673 77.3152L335.465 77.3152C337.462 77.3152 339.081 79.122 339.081 81.3508V105.564" stroke="#5CA1C7" stroke-width="4.75"/>
<path d="M235.328 147.937C239.222 147.937 242.379 144.775 242.379 140.874C242.379 136.974 239.222 133.812 235.328 133.812C231.433 133.812 228.276 136.974 228.276 140.874C228.276 144.775 231.433 147.937 235.328 147.937Z" fill="#5CA1C7" fill-opacity="0.05" stroke="#5CA1C7" stroke-width="4.75" stroke-linecap="round"/>
<path d="M301.81 147.937C305.704 147.937 308.861 144.775 308.861 140.874C308.861 136.974 305.704 133.812 301.81 133.812C297.916 133.812 294.759 136.974 294.759 140.874C294.759 144.775 297.916 147.937 301.81 147.937Z" fill="#5CA1C7" fill-opacity="0.05" stroke="#5CA1C7" stroke-width="4.75" stroke-linecap="round"/>
<path d="M300.803 147.937C300.803 165.767 286.371 180.221 268.569 180.221C250.766 180.221 236.335 165.767 236.335 147.937" stroke="#5CA1C7" stroke-width="4.75" stroke-linecap="round"/>
<path d="M200.195 79.3262L214.378 93.3484C215.225 94.1862 215.234 95.5534 214.398 96.4021C214.253 96.549 214.088 96.6743 213.907 96.7743L198.057 105.564" stroke="#5CA1C7" stroke-width="4.75" stroke-linecap="round"/>
<path d="M337.285 79.4729L323.713 93.337C322.879 94.1886 322.893 95.5558 323.743 96.3907C323.885 96.5301 324.045 96.6491 324.22 96.7444L340.362 105.564" stroke="#5CA1C7" stroke-width="4.75" stroke-linecap="round"/>
</svg>
