<svg width="24" height="24" viewBox="0 0 24 24" fill="none" xmlns="http://www.w3.org/2000/svg">
<path fill-rule="evenodd" clip-rule="evenodd" d="M10.1659 3.91521C7.40727 4.61453 5.3621 6.59772 4.16236 7.88332C3.84954 8.21853 3.32422 8.23668 2.98901 7.92386C2.65381 7.61104 2.63566 7.08571 2.94848 6.75051C4.17667 5.43442 6.50178 3.13121 9.75785 2.30577C12.7902 1.53705 16.4604 2.08637 20.6037 5.47276V3.73422C20.6037 3.27573 20.9754 2.90405 21.4339 2.90405C21.8923 2.90405 22.264 3.27573 22.264 3.73422V6.65277C22.264 6.87653 22.2148 7.0888 22.1267 7.27937C22.1079 7.45208 22.035 7.62035 21.907 7.75684C21.7642 7.90908 21.5776 7.99552 21.385 8.01493C21.1974 8.09983 20.9891 8.14709 20.7697 8.14709H17.7257C17.2672 8.14709 16.8956 7.77541 16.8956 7.31692C16.8956 6.85842 17.2672 6.48674 17.7257 6.48674H19.2142C15.5575 3.62336 12.5237 3.31748 10.1659 3.91521ZM15.2206 20.8808C17.9792 20.1814 20.0244 18.1982 21.2241 16.9126C21.5369 16.5774 22.0623 16.5593 22.3975 16.8721C22.7327 17.1849 22.7508 17.7102 22.438 18.0455C21.2098 19.3615 18.8847 21.6648 15.6286 22.4902C12.5963 23.2589 8.92603 22.7096 4.7828 19.3232V21.0617C4.7828 21.5202 4.41112 21.8919 3.95262 21.8919C3.49413 21.8919 3.12245 21.5202 3.12245 21.0617V18.1432C3.12245 17.9194 3.17163 17.7072 3.25977 17.5166C3.27855 17.3439 3.3515 17.1756 3.47949 17.0391C3.62226 16.8869 3.80891 16.8004 4.00145 16.781C4.1891 16.6961 4.39741 16.6489 4.61677 16.6489H7.66074C8.11924 16.6489 8.49092 17.0206 8.49092 17.479C8.49092 17.9375 8.11924 18.3092 7.66074 18.3092H6.17229C9.82893 21.1726 12.8628 21.4785 15.2206 20.8808ZM11.091 14.4762C11.4671 14.741 11.948 14.8734 12.5336 14.8734C12.9193 14.8734 13.2525 14.8072 13.5334 14.6748C13.8191 14.5424 14.0357 14.3621 14.1833 14.1338C14.3356 13.9055 14.4118 13.6476 14.4118 13.36C14.4118 13.0769 14.3356 12.8441 14.1833 12.6615C14.0357 12.4743 13.8572 12.3305 13.6477 12.2301C13.443 12.1251 13.1811 12.0201 12.8621 11.9151C12.6479 11.842 12.486 11.7827 12.3765 11.737C12.267 11.6868 12.1742 11.6298 12.098 11.5659C12.0266 11.4974 11.9909 11.4175 11.9909 11.3262C11.9909 11.2166 12.0242 11.1322 12.0908 11.0728C12.1575 11.0135 12.2432 10.9838 12.3479 10.9838C12.486 10.9838 12.5979 11.0203 12.6836 11.0934C12.774 11.1664 12.8216 11.276 12.8264 11.422H14.3476C14.3237 10.9473 14.1357 10.5798 13.7834 10.3195C13.4358 10.0548 12.9692 9.92237 12.3836 9.92237C12.0218 9.92237 11.6981 9.97943 11.4124 10.0936C11.1267 10.2077 10.903 10.3766 10.7411 10.6003C10.5792 10.8194 10.4983 11.0842 10.4983 11.3947C10.4983 11.7005 10.5721 11.9493 10.7197 12.1411C10.872 12.3282 11.0482 12.4721 11.2481 12.5725C11.4529 12.6684 11.7195 12.7688 12.048 12.8738C12.3575 12.9697 12.5812 13.0564 12.7193 13.134C12.8574 13.2116 12.9264 13.3212 12.9264 13.4627C12.9264 13.5723 12.8835 13.659 12.7978 13.7229C12.7169 13.7823 12.6122 13.8119 12.4836 13.8119C12.3408 13.8119 12.2241 13.7731 12.1337 13.6955C12.0432 13.6179 11.9909 13.4947 11.9766 13.3257H10.484C10.5126 13.8234 10.7149 14.2068 11.091 14.4762ZM4.54952 14.8254L3.54971 13.045H3.39974V14.8254H2V9.9977H4.20673C4.61141 9.9977 4.9542 10.0662 5.2351 10.2031C5.516 10.3355 5.72787 10.5204 5.8707 10.7578C6.01353 10.9906 6.08494 11.2531 6.08494 11.5453C6.08494 11.874 5.98972 12.1639 5.79928 12.415C5.6136 12.6615 5.33984 12.8373 4.97801 12.9423L6.11351 14.8254H4.54952ZM3.39974 12.1274H4.09246C4.2829 12.1274 4.42573 12.084 4.52095 11.9973C4.61617 11.9105 4.66378 11.785 4.66378 11.6206C4.66378 11.4654 4.61379 11.3444 4.51381 11.2577C4.41859 11.1664 4.27814 11.1207 4.09246 11.1207H3.39974V12.1274ZM8.12122 11.0728V11.8603H9.72806V12.8806H8.12122V13.7503H9.9423V14.8254H6.72148V9.9977H9.9423V11.0728H8.12122ZM16.4623 11.0728V11.8603H18.0691V12.8806H16.4623V13.7503H18.2834V14.8254H15.0625V9.9977H18.2834V11.0728H16.4623ZM22.7672 11.066V9.9977H18.6965V11.066H20.0248V14.8254H21.4246V11.066H22.7672Z" fill="white"/>
</svg>
