<svg width="29" height="22" viewBox="0 0 29 22" fill="none" xmlns="http://www.w3.org/2000/svg">
<path d="M7.60385 21.5131L6.27591 18.9111M7.60385 21.5131L10.5469 21.7105M7.60385 21.5131L7.99823 20.9209M6.27591 18.9111L2.52535 9.72308M6.27591 18.9111L5.917 13.689M2.52535 9.72308L3.62001 10.8895M2.52535 9.72308L3.2611 8.7002M2.52535 9.72308L1.9137 8.26952M1 6.09814L1.39266 7.03129M1 6.09814L1.64603 5.11115M1 6.09814L1.08915 4.71636M1.14356 3.87293L1.44863 3.15512L2.11261 2.13224M1.14356 3.87293L1.08915 4.71636M1.14356 3.87293L1.57425 3.35252M2.11261 2.13224L2.65096 1.61183L4.39165 0.696619M2.11261 2.13224L1.57425 3.35252M2.11261 2.13224H6.09645M4.39165 0.696619C5.58202 0.349677 8.59443 -0.0965616 11.1211 0.894016M4.39165 0.696619L4.43952 0.736927M11.1211 0.894016L11.1588 0.908829M11.1211 0.894016L10.5125 1.80922M15.7331 2.70649L18.9453 4.07033L21.5473 6.42115M15.7331 2.70649L11.1588 0.908829M15.7331 2.70649L10.4993 1.82899M15.7331 2.70649L21.5473 6.42115M21.5473 6.42115L25.1902 10.0282M21.5473 6.42115L24.5621 11.069M25.1902 10.0282L26.5002 12.1816L27.9538 15.8424M25.1902 10.0282L27.9538 15.8424M25.1902 10.0282L24.5621 11.069M27.9538 15.8424C27.9777 16.5423 27.9466 18.0712 27.6308 18.588M27.9538 15.8424L26.0336 15.2502M27.6308 18.588L26.7514 20.0057M27.6308 18.588L26.7514 19.6109M27.6308 18.588L26.0336 15.2502M26.7514 20.0057L25.6927 20.7415M26.7514 20.0057V19.6109M25.6927 20.7415L24.5621 21.2798M25.6927 20.7415L26.0336 20.1493M24.5621 21.2798L25.1364 20.3826M24.5621 21.2798L23.5213 21.3126M20.5783 21.4054L10.5469 21.7105M20.5783 21.4054L21.2781 20.2749M20.5783 21.4054L19.1785 20.9209M20.5783 21.4054L22.1754 21.3551M10.5469 21.7105L15.6613 20.0057M13.2925 12.9712L6.50919 12.7379M13.2925 12.9712L11.2728 16.0039M13.2925 12.9712L16.2355 19.0726M13.2925 12.9712L11.6774 9.18472M13.2925 12.9712L17.4917 12.8635M6.50919 12.7379L5.917 13.689M6.50919 12.7379L7.99823 14.0299M6.50919 12.7379L5.18124 11.5535M6.50919 12.7379L6.81426 7.33636M5.917 13.689L7.99823 20.9209M5.917 13.689L7.53207 14.6939M5.917 13.689L4.71467 12.1816M7.99823 20.9209L15.6613 20.0057M7.99823 20.9209L10.6454 16.946M15.6613 20.0057L16.2355 19.0726M15.6613 20.0057L17.4917 20.4902M15.6613 20.0057L14.1898 18.9111M16.2355 19.0726L21.0807 16.5064M16.2355 19.0726L17.9044 19.7724M16.2355 19.0726L14.5307 18.3368M21.0807 16.5064L21.2781 20.2749M21.0807 16.5064L17.4917 12.8635M21.0807 16.5064L22.8214 13.689M21.0807 16.5064L25.1364 20.3826M21.2781 20.2749H19.6092M21.2781 20.2749L22.5164 20.6697M19.6092 20.2749L17.9044 19.7724M19.6092 20.2749L19.1785 20.9209M17.9044 19.7724L17.4917 20.4902M17.4917 20.4902L19.1785 20.9209M14.1898 18.9111L12.4491 17.9241M14.1898 18.9111L14.5307 18.3368M12.4491 17.9241L10.6454 16.946M12.4491 17.9241L12.9515 17.3319M10.6454 16.946L11.2728 16.0039M10.6454 16.946L9.11126 15.7527M11.2728 16.0039L12.9515 17.3319M11.2728 16.0039L9.50605 15.1246M12.9515 17.3319L14.5307 18.3368M17.4917 12.8635L22.8214 13.689M17.4917 12.8635L11.6774 9.18472M22.8214 13.689L26.0336 15.2502M22.8214 13.689L24.5621 11.069M25.1364 20.3826L23.8802 20.6697M25.1364 20.3826L26.0336 20.1493M25.1364 20.3826L26.0336 15.2502M23.8802 20.6697H22.5164M23.8802 20.6697L23.5213 21.3126M22.5164 20.6697L22.1754 21.3551M22.1754 21.3551L23.5213 21.3126M26.0336 20.1493L26.7514 19.6109M9.11126 15.7527L7.53207 14.6939M9.11126 15.7527L9.50605 15.1246M7.53207 14.6939L7.99823 14.0299M7.99823 14.0299L9.50605 15.1246M4.71467 12.1816L3.62001 10.8895M4.71467 12.1816L5.18124 11.5535M3.62001 10.8895L4.08658 10.2435M3.2611 8.7002L4.08658 10.2435M3.2611 8.7002L6.81426 7.33636M3.2611 8.7002L2.43562 7.65938M4.08658 10.2435L5.18124 11.5535M6.81426 7.33636L11.6774 9.18472M6.81426 7.33636L1.64603 5.11115M6.81426 7.33636L8.69851 4.5369M11.6774 9.18472L8.69851 4.5369M1.64603 5.11115L1.86137 6.52883M1.64603 5.11115L6.09645 2.13224M1.64603 5.11115L1.44863 4.35745M1.86137 6.52883L2.43562 7.65938M1.86137 6.52883L1.39266 7.03129M2.43562 7.65938L1.9137 8.26952M1.9137 8.26952L1.39266 7.03129M26.0336 15.2502L24.5621 11.069M8.69851 4.5369L6.09645 2.13224M8.69851 4.5369L10.4993 1.82899M6.09645 2.13224L4.43952 0.736927M6.09645 2.13224L10.5125 1.80922M1.44863 4.35745L1.08915 4.71636M1.44863 4.35745L1.57425 3.35252M4.43952 0.736927L11.1588 0.908829M10.5125 1.80922L10.4993 1.82899" stroke="#00A5C8" stroke-width="0.481375"/>
<path d="M7.62104 21.513L7.49542 17.2062M7.62104 21.513L6.07775 17.4215M7.62104 21.513L11.569 19.88M7.62104 21.513L24.5793 21.2618M7.62104 21.513L11.8023 21.2798M7.49542 17.2062L12.6995 2.88587M7.49542 17.2062L3.83816 1.6449M7.49542 17.2062L8.01583 1.21697M12.6995 2.88587L9.64885 18.4265M12.6995 2.88587L14.6376 3.3704M12.6995 2.88587L13.3276 2.00656M12.6995 2.88587L11.1742 1.95272L11.7305 1.12724L13.3276 2.00656M9.64885 18.4265L22.4438 9.2026M9.64885 18.4265L18.9086 4.07026L13.3276 2.00656M22.4438 9.2026L21.2235 7.67726M22.4438 9.2026L23.054 8.37712M22.4438 9.2026L23.8077 10.369M22.4438 9.2026L11.569 19.88M21.2235 7.67726L19.77 6.42109M21.2235 7.67726L21.6004 7.12095M19.77 6.42109L18.0652 5.29054L16.486 4.24971M19.77 6.42109L20.1648 5.77506M16.486 4.24971L14.6376 3.3704M16.486 4.24971L16.7911 3.62163M14.6376 3.3704L14.9965 2.81409M13.3276 2.00656L14.9965 2.81409M13.3276 2.00656L10.9589 1.16313L8.5183 0.319703L8.01583 1.21697M14.9965 2.81409L16.7911 3.62163M16.7911 3.62163L18.6156 4.52457L20.1648 5.77506M20.1648 5.77506L21.6004 7.12095M21.6004 7.12095L23.054 8.37712M23.054 8.37712L25.1715 10.046M23.054 8.37712L24.2373 9.67815M25.8175 13.1506L26.302 12.4327L26.4815 12.1456L25.4206 10.9792M25.8175 13.1506L24.9382 11.697M25.8175 13.1506L26.6251 14.2452M25.8175 13.1506L11.569 19.88M24.9382 11.697L25.4206 10.9792M24.9382 11.697L24.5614 11.0689L23.8077 10.369M25.4206 10.9792L24.2373 9.67815M23.8077 10.369L24.2373 9.67815M3.83459 1.62971L4.39089 0.696553M3.83459 1.62971L6.07775 17.4215M3.83459 1.62971L2.99116 1.79121M3.83459 1.62971L3.83816 1.6449M6.07775 17.4215L1.5376 3.71136L1.57349 3.35245L2.00417 2.49108L2.99116 1.79121M6.07775 17.4215L2.54253 9.72302M2.99116 1.79121L3.26034 1.30669M3.83816 1.6449L4.98309 1.21697M4.98309 1.21697L5.62912 0.427375M4.98309 1.21697L6.58021 0.965732M6.58021 0.965732L6.99295 0.301758M6.58021 0.965732L8.01583 1.21697M8.01583 1.21697L9.63091 1.43231M9.63091 1.43231L10.1334 0.876006M9.63091 1.43231L10.4923 1.80916M11.569 19.88L27.289 16.8832M27.289 16.8832L27.953 15.8603M27.289 16.8832L27.1455 15.6091M27.289 16.8832L27.5403 17.7266M27.289 16.8832L11.8023 21.2798M27.1455 15.6091L27.5403 14.9451M27.1455 15.6091L26.6251 14.2452M26.6251 14.2452L26.984 13.7428M27.5403 17.7266L27.9171 17.2241M27.5403 17.7266L27.63 18.57M27.5403 17.7266L27.5044 18.3906L26.7507 19.6108L21.2774 20.2748L11.8023 21.2798" stroke="#00A5C8" stroke-opacity="0.22" stroke-width="0.240687"/>
</svg>
