<svg width="81" height="68" viewBox="0 0 81 68" fill="none" xmlns="http://www.w3.org/2000/svg">
<path d="M40.5 55C55.6878 55 68 42.6878 68 27.5C68 12.3122 55.6878 0 40.5 0C25.3122 0 13 12.3122 13 27.5C13 42.6878 25.3122 55 40.5 55Z" fill="#A2D9E5"/>
<mask id="mask0_332_29" style="mask-type:alpha" maskUnits="userSpaceOnUse" x="13" y="0" width="55" height="55">
<path d="M40.5 55C55.6878 55 68 42.6878 68 27.5C68 12.3122 55.6878 0 40.5 0C25.3122 0 13 12.3122 13 27.5C13 42.6878 25.3122 55 40.5 55Z" fill="#A2D9E5"/>
</mask>
<g mask="url(#mask0_332_29)">
<path d="M57 55H24V19.4333C25.5554 19.4316 27.0466 18.8129 28.1464 17.7131C29.2463 16.6133 29.8649 15.1221 29.8667 13.5667H51.1333C51.1317 14.3372 51.2829 15.1003 51.5781 15.812C51.8733 16.5237 52.3068 17.1698 52.8534 17.7129C53.3964 18.2596 54.0426 18.6932 54.7543 18.9885C55.4661 19.2839 56.2294 19.435 57 19.4333V55Z" fill="white"/>
</g>
<path d="M40.5002 37.4C45.3603 37.4 49.3002 33.4601 49.3002 28.6C49.3002 23.7399 45.3603 19.8 40.5002 19.8C35.6401 19.8 31.7002 23.7399 31.7002 28.6C31.7002 33.4601 35.6401 37.4 40.5002 37.4Z" fill="#00A5C8"/>
<g clip-path="url(#clip0_332_29)">
<path d="M36.5 24.5L45.5 33.5" stroke="white" stroke-width="0.75" stroke-linecap="round" stroke-linejoin="round"/>
<path d="M42.5 28.5V28L44.7765 26.862C44.8527 26.8239 44.9374 26.8059 45.0225 26.8098C45.1076 26.8136 45.1903 26.8391 45.2628 26.8839C45.3353 26.9287 45.3951 26.9912 45.4366 27.0656C45.4781 27.14 45.5 27.2238 45.5 27.309V30.691C45.5 30.7952 45.4675 30.8968 45.407 30.9816C45.3465 31.0664 45.261 31.1301 45.1625 31.164" stroke="white" stroke-width="0.75" stroke-linecap="round" stroke-linejoin="round"/>
<path d="M40 26H41.5C41.7652 26 42.0196 26.1054 42.2071 26.2929C42.3946 26.4804 42.5 26.7348 42.5 27V28.5M42.5 30.5V31C42.5 31.2652 42.3946 31.5196 42.2071 31.7071C42.0196 31.8946 41.7652 32 41.5 32H37.5C37.2348 32 36.9804 31.8946 36.7929 31.7071C36.6054 31.5196 36.5 31.2652 36.5 31V27C36.5 26.7348 36.6054 26.4804 36.7929 26.2929C36.9804 26.1054 37.2348 26 37.5 26H38" stroke="white" stroke-width="0.75" stroke-linecap="round" stroke-linejoin="round"/>
</g>
<path d="M45.2666 39.6H35.7333C35.1258 39.6 34.6333 40.0925 34.6333 40.7C34.6333 41.3075 35.1258 41.8 35.7333 41.8H45.2666C45.8741 41.8 46.3666 41.3075 46.3666 40.7C46.3666 40.0925 45.8741 39.6 45.2666 39.6Z" fill="#DFEAFB"/>
<path d="M48.5663 44H32.433C31.8255 44 31.333 44.4925 31.333 45.1C31.333 45.7075 31.8255 46.2 32.433 46.2H48.5663C49.1739 46.2 49.6663 45.7075 49.6663 45.1C49.6663 44.4925 49.1739 44 48.5663 44Z" fill="#DFEAFB"/>
<path d="M6.80176 66H5.53223L2.1875 60.8535C2.10286 60.7233 2.03288 60.5882 1.97754 60.4482H1.94824C1.97428 60.598 1.9873 60.9186 1.9873 61.4102V66H0.864258V58.998H2.2168L5.44922 64.0225C5.58594 64.2308 5.67383 64.374 5.71289 64.4521H5.73242C5.69987 64.2666 5.68359 63.9525 5.68359 63.5098V58.998H6.80176V66ZM10.6299 66.1172C9.8584 66.1172 9.24154 65.8844 8.7793 65.4189C8.32031 64.9502 8.09082 64.3301 8.09082 63.5586C8.09082 62.7188 8.33008 62.0628 8.80859 61.5908C9.29036 61.1188 9.93815 60.8828 10.752 60.8828C11.5332 60.8828 12.1419 61.1123 12.5781 61.5713C13.0143 62.0303 13.2324 62.6667 13.2324 63.4805C13.2324 64.278 12.9964 64.9176 12.5244 65.3994C12.0557 65.8779 11.4242 66.1172 10.6299 66.1172ZM10.6836 61.7861C10.2409 61.7861 9.89095 61.9408 9.63379 62.25C9.37663 62.5592 9.24805 62.9857 9.24805 63.5293C9.24805 64.0534 9.37826 64.4668 9.63867 64.7695C9.89909 65.069 10.2474 65.2188 10.6836 65.2188C11.1296 65.2188 11.4714 65.0706 11.709 64.7744C11.9499 64.4782 12.0703 64.0566 12.0703 63.5098C12.0703 62.9596 11.9499 62.5348 11.709 62.2354C11.4714 61.9359 11.1296 61.7861 10.6836 61.7861ZM22.7588 58.998L20.2441 66H18.9453L16.4746 58.998H17.7441L19.4727 64.3105C19.528 64.4798 19.5703 64.6768 19.5996 64.9014H19.6191C19.6419 64.7158 19.6891 64.5156 19.7607 64.3008L21.5283 58.998H22.7588ZM24.1309 59.9502C23.9453 59.9502 23.7858 59.89 23.6523 59.7695C23.5221 59.6491 23.457 59.4961 23.457 59.3105C23.457 59.125 23.5221 58.9704 23.6523 58.8467C23.7858 58.723 23.9453 58.6611 24.1309 58.6611C24.3229 58.6611 24.4857 58.723 24.6191 58.8467C24.7526 58.9704 24.8193 59.125 24.8193 59.3105C24.8193 59.4863 24.7526 59.6377 24.6191 59.7646C24.4857 59.8883 24.3229 59.9502 24.1309 59.9502ZM24.6924 66H23.5596V61H24.6924V66ZM30.7227 66H29.5898V65.1504H29.5703C29.2057 65.7949 28.6442 66.1172 27.8857 66.1172C27.2705 66.1172 26.7773 65.8942 26.4062 65.4482C26.0384 64.999 25.8545 64.3887 25.8545 63.6172C25.8545 62.7904 26.0579 62.1279 26.4648 61.6299C26.875 61.1318 27.4202 60.8828 28.1006 60.8828C28.7744 60.8828 29.2643 61.153 29.5703 61.6934H29.5898V58.5977H30.7227V66ZM29.6045 63.7148V63.0605C29.6045 62.7057 29.4889 62.4046 29.2578 62.1572C29.0267 61.9098 28.7321 61.7861 28.374 61.7861C27.9508 61.7861 27.6172 61.944 27.373 62.2598C27.1322 62.5755 27.0117 63.0133 27.0117 63.5732C27.0117 64.0811 27.1273 64.4831 27.3584 64.7793C27.5928 65.0723 27.9069 65.2188 28.3008 65.2188C28.6882 65.2188 29.0023 65.0771 29.2432 64.7939C29.484 64.5075 29.6045 64.1478 29.6045 63.7148ZM36.4355 63.8076H33.0273C33.0404 64.2699 33.182 64.6263 33.4521 64.877C33.7256 65.1276 34.0999 65.2529 34.5752 65.2529C35.109 65.2529 35.599 65.0934 36.0449 64.7744V65.6875C35.5892 65.974 34.987 66.1172 34.2383 66.1172C33.5026 66.1172 32.9248 65.891 32.5049 65.4385C32.0882 64.9827 31.8799 64.3431 31.8799 63.5195C31.8799 62.7415 32.1094 62.1084 32.5684 61.6201C33.0306 61.1286 33.6035 60.8828 34.2871 60.8828C34.9707 60.8828 35.4997 61.1025 35.874 61.542C36.2484 61.9814 36.4355 62.5918 36.4355 63.373V63.8076ZM35.3418 63.0068C35.3385 62.5999 35.2425 62.2842 35.0537 62.0596C34.8649 61.8317 34.6045 61.7178 34.2725 61.7178C33.9469 61.7178 33.6702 61.8366 33.4424 62.0742C33.2178 62.3118 33.0794 62.6227 33.0273 63.0068H35.3418ZM39.7314 66.1172C38.96 66.1172 38.3431 65.8844 37.8809 65.4189C37.4219 64.9502 37.1924 64.3301 37.1924 63.5586C37.1924 62.7188 37.4316 62.0628 37.9102 61.5908C38.3919 61.1188 39.0397 60.8828 39.8535 60.8828C40.6348 60.8828 41.2435 61.1123 41.6797 61.5713C42.1159 62.0303 42.334 62.6667 42.334 63.4805C42.334 64.278 42.098 64.9176 41.626 65.3994C41.1572 65.8779 40.5257 66.1172 39.7314 66.1172ZM39.7852 61.7861C39.3424 61.7861 38.9925 61.9408 38.7354 62.25C38.4782 62.5592 38.3496 62.9857 38.3496 63.5293C38.3496 64.0534 38.4798 64.4668 38.7402 64.7695C39.0007 65.069 39.349 65.2188 39.7852 65.2188C40.2311 65.2188 40.5729 65.0706 40.8105 64.7744C41.0514 64.4782 41.1719 64.0566 41.1719 63.5098C41.1719 62.9596 41.0514 62.5348 40.8105 62.2354C40.5729 61.9359 40.2311 61.7861 39.7852 61.7861ZM50.1514 59.9844H47.5342V62.0889H49.9463V63.0703H47.5342V66H46.3721V58.998H50.1514V59.9844ZM53.4912 66.1172C52.7197 66.1172 52.1029 65.8844 51.6406 65.4189C51.1816 64.9502 50.9521 64.3301 50.9521 63.5586C50.9521 62.7188 51.1914 62.0628 51.6699 61.5908C52.1517 61.1188 52.7995 60.8828 53.6133 60.8828C54.3945 60.8828 55.0033 61.1123 55.4395 61.5713C55.8757 62.0303 56.0938 62.6667 56.0938 63.4805C56.0938 64.278 55.8577 64.9176 55.3857 65.3994C54.917 65.8779 54.2855 66.1172 53.4912 66.1172ZM53.5449 61.7861C53.1022 61.7861 52.7523 61.9408 52.4951 62.25C52.238 62.5592 52.1094 62.9857 52.1094 63.5293C52.1094 64.0534 52.2396 64.4668 52.5 64.7695C52.7604 65.069 53.1087 65.2188 53.5449 65.2188C53.9909 65.2188 54.3327 65.0706 54.5703 64.7744C54.8112 64.4782 54.9316 64.0566 54.9316 63.5098C54.9316 62.9596 54.8112 62.5348 54.5703 62.2354C54.3327 61.9359 53.9909 61.7861 53.5449 61.7861ZM61.6113 66H60.4785V65.209H60.459C60.1302 65.8145 59.6191 66.1172 58.9258 66.1172C57.7441 66.1172 57.1533 65.4076 57.1533 63.9883V61H58.2861V63.8711C58.2861 64.7695 58.6328 65.2188 59.3262 65.2188C59.6615 65.2188 59.9365 65.0951 60.1514 64.8477C60.3695 64.6003 60.4785 64.2764 60.4785 63.876V61H61.6113V66ZM67.5439 66H66.4111V63.1826C66.4111 62.2484 66.0807 61.7812 65.4199 61.7812C65.0749 61.7812 64.79 61.9115 64.5654 62.1719C64.3408 62.429 64.2285 62.7546 64.2285 63.1484V66H63.0908V61H64.2285V61.8301H64.248C64.6224 61.1986 65.1628 60.8828 65.8691 60.8828C66.4128 60.8828 66.8278 61.0602 67.1143 61.415C67.4007 61.7666 67.5439 62.276 67.5439 62.9434V66ZM73.4766 66H72.3438V65.1504H72.3242C71.9596 65.7949 71.3981 66.1172 70.6396 66.1172C70.0244 66.1172 69.5312 65.8942 69.1602 65.4482C68.7923 64.999 68.6084 64.3887 68.6084 63.6172C68.6084 62.7904 68.8118 62.1279 69.2188 61.6299C69.6289 61.1318 70.1742 60.8828 70.8545 60.8828C71.5283 60.8828 72.0182 61.153 72.3242 61.6934H72.3438V58.5977H73.4766V66ZM72.3584 63.7148V63.0605C72.3584 62.7057 72.2428 62.4046 72.0117 62.1572C71.7806 61.9098 71.486 61.7861 71.1279 61.7861C70.7048 61.7861 70.3711 61.944 70.127 62.2598C69.8861 62.5755 69.7656 63.0133 69.7656 63.5732C69.7656 64.0811 69.8812 64.4831 70.1123 64.7793C70.3467 65.0723 70.6608 65.2188 71.0547 65.2188C71.4421 65.2188 71.7562 65.0771 71.9971 64.7939C72.238 64.5075 72.3584 64.1478 72.3584 63.7148ZM76.2793 58.998L76.1865 63.9395H75.2588L75.1318 58.998H76.2793ZM75.7373 66.0977C75.542 66.0977 75.376 66.0358 75.2393 65.9121C75.1025 65.7852 75.0342 65.6322 75.0342 65.4531C75.0342 65.2676 75.1025 65.1097 75.2393 64.9795C75.376 64.8493 75.542 64.7842 75.7373 64.7842C75.9261 64.7842 76.0889 64.8493 76.2256 64.9795C76.3656 65.1097 76.4355 65.2676 76.4355 65.4531C76.4355 65.6322 76.3656 65.7852 76.2256 65.9121C76.0889 66.0358 75.9261 66.0977 75.7373 66.0977ZM79.3164 58.998L79.2236 63.9395H78.2959L78.1689 58.998H79.3164ZM78.7744 66.0977C78.5791 66.0977 78.4131 66.0358 78.2764 65.9121C78.1396 65.7852 78.0713 65.6322 78.0713 65.4531C78.0713 65.2676 78.1396 65.1097 78.2764 64.9795C78.4131 64.8493 78.5791 64.7842 78.7744 64.7842C78.9632 64.7842 79.126 64.8493 79.2627 64.9795C79.4027 65.1097 79.4727 65.2676 79.4727 65.4531C79.4727 65.6322 79.4027 65.7852 79.2627 65.9121C79.126 66.0358 78.9632 66.0977 78.7744 66.0977Z" fill="black"/>
<defs>
<clipPath id="clip0_332_29">
<rect width="12" height="12" fill="white" transform="translate(35 23)"/>
</clipPath>
</defs>
</svg>
